<?xml version="1.0" encoding="UTF-8"?>
<svg id="Capa_2" data-name="Capa 2" xmlns="http://www.w3.org/2000/svg" viewBox="0 0 310.55 250.57">
  <defs>
    <style>
      .cls-1 {
        fill: #7fdbb6;
      }
    </style>
  </defs>
  <g id="Capa_1-2" data-name="Capa 1">
    <path class="cls-1" d="m305.73.17c-4.13-.33-8.28-.19-12.38.4-27.28,3.4-54.05,9.04-79.64,19.7-1,.4-1.86.9-2.8,1.35-.06.03-.11.07-.17.1-3.13,1.11-6.15,2.54-9,4.25-.01,0-.02.02-.04.03-2.79,1.15-5.46,2.57-7.96,4.24,0,0-.01,0-.02.01-2.87,1.46-5.6,3.18-8.15,5.14-2.98,1.85-5.81,3.95-8.45,6.26-.01.02-.02.05-.03.08-3.02,2.08-5.76,4.54-8.16,7.31,0,.01,0,.02.01.03,0,0,0,0,0,0-2.6,2.15-4.93,4.6-6.94,7.31-2.64,2.69-4.91,5.72-6.76,9-.02.04-.03.09-.05.13-1.17,1.35-2.11,2.89-2.78,4.55-.01.05-.02.1-.03.15-2.32,3.54-4.17,7.36-5.51,11.38-.01.03-.02.05-.04.08-1.05,1.24-1.25,2.79-1.56,4.3-.18.55-.35,1.1-.53,1.65.14-.58.27-1.17.4-1.75-1.68,2.92-2.34,6.22-3.16,9.4-1.85,7.18-2.89,14.53-3.12,21.94.01,0,.02.02.03.03,0,0,0,0-.01,0-.36,3.5-.42,7.03-.18,10.55-.09,11.59,1.59,23,3.64,34.31,2.71,15,7,29.61,10.13,44.53.9,4.37,1.81,8.79.87,13.31-.79,3.84-2.48,5.15-6.38,4.91-4.93-.3-9.19-2.63-13.5-4.71-2.62-1.27-5.16-2.72-7.73-4.09.19.22.39.42.58.62-.2-.18-.4-.37-.58-.57l-12.91-8.24s-.06-.04-.1-.06c.03,0,.06.02.1.02l-13.36-11.35s0,0-.01,0c-3.86-4.96-8.02-9.68-11.23-15.12-.03-.05-.06-.08-.1-.12-2.86-5.78-5.21-11.8-7.01-18,0,0,0,0,0,0-.41-4.84-.81-9.65-1.22-14.45.47-2.01.58-4.09.34-6.14l.22-1.42c.54-1.14.68-2.43.41-3.67l.36-2.04c3.13-13.58,8.37-26.58,15.53-38.53,7.2-12.07,15.66-23.34,25.25-33.62,1.13-.92,2.05-2.07,2.69-3.38-6.39.13-12.77.65-19.1,1.55-.01,0-.02,0-.03,0,.01,0,.02-.02.03-.03-7.02.38-14.01,1.23-20.91,2.53,0,0,0,0,0,0-8.26,1.05-16.43,2.71-24.45,4.95-9.43,2.03-18.58,5.22-27.23,9.49-12.73,5.83-23.82,13.6-29.78,27-3.46,7.5-4.16,15.98-1.96,23.94,0-.01.01-.02.02-.03,0,.01,0,.02,0,.03.52,5.2,2.54,9.91,4.72,14.57,1.58,3.53,3.5,6.9,5.73,10.06,0,.03.01.05.02.07,2.29,3.83,4.94,7.43,7.91,10.75,3.39,4.66,7.25,8.96,11.52,12.82,0,0,0-.02,0-.03.01.02.02.03.03.05,4.39,4.81,9.19,9.22,14.35,13.19,0,0,0,0,0,0,4.13,3.79,8.55,7.26,13.21,10.38h0c3.13,2.62,6.47,4.96,10,7,.01-.01.02-.03.03-.04,0,0,0,0,0,0,5.28,3.93,10.88,7.41,16.75,10.39,4.89,3.24,10.05,6.03,15.44,8.35,6.41,3.81,13.3,6.58,20.16,9.37,14.08,5.72,28.53,10.31,43.59,12.66,12.34,1.92,24.69,2.48,37-.66.44-.14.88-.3,1.3-.5,0,0,0,0-.01-.01,3.44-.85,6.73-2.19,9.78-3.99,0-.02-.02-.04-.03-.05.03,0,.06,0,.09,0,.82-.18,1.56-.61,2.12-1.24-.01,0-.02-.01-.04-.02,1.14-.48,2.14-1.25,2.91-2.22-.03,0-.05,0-.08,0,.02-.01.05-.02.07-.03,2.81-1.87,5.16-4.34,6.89-7.23.01.01.02.03.03.04,4.56-6.01,7.24-13.24,7.69-20.77-.02,0-.03.01-.06.01,0,0,0-.02,0-.02.92-4.85,1.11-9.8.57-14.71.01-.02.03-.04.04-.05.26-6.12.51-12.23.8-18.35.15-3.18.37-6.38.56-9.57,0,0,0-.02.01-.03,1.45-9.87,2.54-19.81,5-29.52,1.25-5,2.41-10,3.62-15-.01-.01-.03-.02-.04-.03,2.12-6.34,4.24-12.67,6.36-18.97-.21.15-.39.34-.54.55.1-.23.26-.42.54-.57,3.31-7.68,6.54-15.4,10.28-22.89,9.54-19,21.26-36.64,34.29-53.4,4.61-5.92,9.38-11.72,13.51-18,1.02-1.49,1.87-3.1,2.52-4.79,1.52-4.16.21-6.38-4.21-6.8Zm-124.88,243.78h0s0,0,0,0c0,0,0,0,0,0Zm-40.2-138.86c.03.29.09.59.13.88-.05-.07-.1-.14-.16-.21-.01.04-.02.09-.03.13-.02-.06-.03-.11-.05-.17.03-.21.08-.42.11-.63Z"/>
  </g>
</svg>