<svg xmlns="http://www.w3.org/2000/svg" viewBox="0 0 849.91 293.18"><defs><style>.cls-1{fill:#734595;}.cls-2{fill:#854a97;}.cls-3{fill:#6f4494;}.cls-4{fill:#6c4394;}.cls-5{fill:#674293;}.cls-6{fill:#6b4394;}.cls-7{fill:#614092;}.cls-8{fill:#5b3f92;}.cls-9{fill:#543e91;}.cls-10{fill:#774695;}.cls-11{fill:#704494;}.cls-12{fill:#583e91;}.cls-13{fill:#644193;}.cls-14{fill:#7a4796;}.cls-15{fill:#7e4896;}.cls-16{fill:#644192;}.cls-17{fill:#824a97;}.cls-18{fill:#724595;}.cls-19{fill:#593e91;}.cls-20{fill:#764695;}.cls-21{fill:#814997;}.cls-22{fill:#95519b;}.cls-23{fill:#91509a;}.cls-24{fill:#8e4e99;}.cls-25{fill:#894c98;}.cls-26{fill:#a0569d;}.cls-27{fill:#593f91;}.cls-28{fill:#9d559d;}.cls-29,.cls-33{fill:#9c559d;}.cls-30{fill:#7c4796;}.cls-31{fill:#9a549c;}.cls-32,.cls-33{font-size:225px;font-family:Bauhaus93, "Bauhaus 93";}</style></defs><g id="Capa_2" data-name="Capa 2"><g id="Capa_1-2" data-name="Capa 1"><path class="cls-1" d="M81.22,135.53A133.25,133.25,0,0,1,96.75,97,197.55,197.55,0,0,1,122,63.38,10,10,0,0,0,124.69,60a157.52,157.52,0,0,0-19.1,1.55,6.11,6.11,0,0,0-4.24,3c-3.23,5.74-7.17,11-10.66,16.59C82,95,72.83,108.55,64.07,122.4c-5.54,8.77-11.48,17.3-17,26.07-5.1,8.06-10.54,15.89-15.58,24-1.07,1.72-1.68,3.43-.28,5.25a111.14,111.14,0,0,0,14.39,13.22c2.51-8.7,8.7-15.2,13.26-22.67,6.21-10.18,13-20,19.28-30.1C78.85,137,79.51,135.57,81.22,135.53Z"/><path class="cls-2" d="M249.34,106.08c3.31-7.68,6.54-15.4,10.28-22.89,9.54-19,21.26-36.64,34.29-53.4,4.61-5.92,9.38-11.72,13.51-18A23.27,23.27,0,0,0,309.94,7c1.52-4.16.21-6.38-4.21-6.8a55.75,55.75,0,0,0-12.38.4C266.07,4,239.3,9.64,213.71,20.3c-1,.4-1.86.9-2.8,1.35a3,3,0,0,0-1.36,4.29c.85,1.87,1,4,2,5.83a2.27,2.27,0,0,0,3.08-.09A45.27,45.27,0,0,1,228,24.55a1.94,1.94,0,0,0,.64-.55c2.56-1.34,5.4-1.84,8.12-2.68a30,30,0,0,0,5.55-1.8c3.88-1.33,7.93-1.87,11.89-2.8A50.93,50.93,0,0,1,266,14.43c1.44-.08,2.23.81,2.67,2.11,2,5.95,3.83,12,5.64,18a6.53,6.53,0,0,1-.86,5.77c-2.34,3.37-5,6.51-6.84,10.22-.26.52-.86.74-1.27,1.14-3.47,5-6.14,10.49-9.48,15.57-3.26,5.68-5.7,11.77-8.77,17.55-2,4.62-4,9.2-5.86,13.87a6.85,6.85,0,0,0-.73,3.85c1.69,1.63,3.2,3.34,3.6,5.85a2.39,2.39,0,0,0,2.52,2.23c1.46-.08,1.55-1.41,1.88-2.5C248.71,107.39,248.5,106.5,249.34,106.08Z"/><path class="cls-3" d="M31.18,177.7c-.18-3.27,2.07-5.5,3.63-7.91,7.55-11.68,15.39-23.18,22.9-34.89q9.58-14.91,19.2-29.78C80.83,99,85.06,93.15,88.79,87c4.39-7.26,9.48-14,13.61-21.47a12.37,12.37,0,0,1,3.19-4,160.75,160.75,0,0,0-21,2.54,11.14,11.14,0,0,0-5.46,4.66c-6,10.64-13.27,20.49-19.7,30.88-4.21,6.78-8.59,13.51-13.19,20.08C42.51,125,39.52,131,35.73,136.32c-5.7,8-10.37,16.7-16.19,24.62-1,1.43-.71,2.66.12,3.94A83.54,83.54,0,0,0,31.18,177.7Z"/><path class="cls-4" d="M19.66,164.88c-.23-3.4,2.68-5.13,4.13-7.59,6-10.19,12.77-19.86,19.11-29.83,5.5-8.65,11-17.37,17-25.7,3.28-4.53,5.58-9.8,9-14.27,5.7-7.52,9.4-16.4,15.78-23.44A170.91,170.91,0,0,0,60.23,69c-4.61,3.86-7.47,9.11-10.51,14.13C46.46,88.49,42.77,93.58,39.51,99c-4.54,7.51-9.68,14.61-14.23,22.12-3.8,6.26-8,12.27-12.09,18.37-.48.72-.88,1.49-1.4,2.16-2.93,3.72-4.07,7.48-.42,11.41a2.22,2.22,0,0,1,.38,1.07A70.44,70.44,0,0,0,19.66,164.88Z"/><path class="cls-5" d="M162,56.41a43.06,43.06,0,0,0-6.76,9,8.29,8.29,0,0,0,.07,7.13c2.32,5.42,4.19,11,6,16.64,1.38,4.34,3.21,8.53,4.56,12.89,1.8,5.8,4.11,11.41,6.06,17.16,2.06,6.11,4.22,12.21,6.57,18.22,2,5,3.58,10.22,5.39,15.32,1.87,5.29,3.6,10.63,5.78,15.8,1.77,4.2,2.87,8.66,4.44,12.95,1.78,4.91,3.64,9.79,5.41,14.7,2.16,6,3.84,12.2,6.28,18.06,2.77,6.68,4.32,13.81,7.4,20.36a28.86,28.86,0,0,1,1.29,4.08c.52,1.73,1.53,2.62,3.37,1.58a22.66,22.66,0,0,0,6.9-7.25c.34-3.3-1.18-6.19-2.22-9.09-2.76-7.7-5.66-15.36-8.35-23.08-4.88-14-9.93-28-14.91-42q-5.83-16.4-11.69-32.8c-3.18-8.86-6.49-17.68-9.53-26.59-3.78-11.08-7.74-22.09-11.73-33.09-1-2.87-1.89-5.8-3.19-8.56C162.87,57.32,162.76,56.64,162,56.41Z"/><path class="cls-6" d="M162,56.41c-.18,4.08,2.14,7.41,3.3,11.07q3.28,10.33,7.16,20.48c4.18,11,7.65,22.31,12.07,33.25,2.56,6.33,4.51,12.92,6.8,19.37,3.84,10.86,7.75,21.69,11.59,32.55,3.2,9.06,6.29,18.16,9.51,27.21q4.06,11.43,8.35,22.77c1.26,3.35,1.67,7.07,4,10a38.16,38.16,0,0,0,7.69-20.77c-1.93.21-1.51,2.2-2.54,3.41-2-4.05-3.18-8.32-4.66-12.46-4.23-11.8-8.37-23.64-12.63-35.44-4.17-11.53-8.18-23.12-12.42-34.63-.92-2.49-2.12-4.86-1.94-7.62-6.5-9.76-10-20.64-11.73-32.22-3.43-5.81-4.71-12.48-7.1-18.7-3-7.79-5.55-15.74-8.41-23.58-.4-1.07-.92-1.86-2.1-2A42.17,42.17,0,0,0,162,56.41Z"/><path class="cls-7" d="M203,247.87a36.6,36.6,0,0,0,9.82-4c-3.56-6.51-5.43-13.72-8-20.62-4.42-11.76-8.53-23.65-12.69-35.5-4.55-12.93-9.39-25.75-13.74-38.76-2.86-8.57-6-17-9.14-25.53-2.36-6.43-4.41-13-6.82-19.39-3.16-8.37-6-16.86-9-25.26-.83-2.27-2-4.63-.43-7.11a1.48,1.48,0,0,0-.55-1.57,49.24,49.24,0,0,0-5.58,11.49c-2.58,5.27-2,10.38.07,15.7q6.14,16,11.65,32.19c5.81,17.1,12,34.08,18.08,51.07,4.56,12.71,8.86,25.51,13.63,38.14,2.87,7.64,5.59,15.36,8.29,23.07a21.71,21.71,0,0,1,.93,5.56C200.48,248.67,201.89,247.41,203,247.87Z"/><path class="cls-8" d="M199.79,247.28c1.46-.83,1.47-2,1-3.44-2.27-6.25-4.49-12.52-6.74-18.79l-11.25-31.46q-6.44-18-12.85-36c-3.3-9.33-6.47-18.7-9.78-28-3.8-10.67-7.61-21.34-11.56-31.95-1.95-5.22-4-10.35-1.73-16-1.09,1.25-1.29,2.83-1.61,4.36-2,6.18-3.93,12.36-4.67,18.83a35.26,35.26,0,0,0,2.81,10.62c4.37,10.74,7.58,21.91,11.82,32.7,3.55,9,6.31,18.31,9.75,27.37,4,10.66,7.6,21.5,11.36,32.27,2.42,6.9,5,13.75,7.34,20.68,1.49,4.42,3.29,8.71,4.71,13.15.65,2,0,3-2.19,2.53a24.59,24.59,0,0,1-2.65-.82c-1.05-.14-2.11-.29-2.82.81-.1,1.34.82,1.83,1.84,2.15,5,1.56,10.14,2.7,15.49,2.07C198.74,248.21,199.56,248.29,199.79,247.28Z"/><path class="cls-2" d="M199.79,247.28c-6.56.14-13-.62-19-3.32-.05-.14-.11-.29-.16-.44a25.61,25.61,0,0,0-4.83-2.68A130.18,130.18,0,0,1,153.06,231c-8.36-4.44-17.05-8.26-25.13-13.25a6.52,6.52,0,0,1-2.2-1.62l-12.91-8.24a21.32,21.32,0,0,1-3.64-2.63c-1.45-1.05-2.76-.93-3.84.67-3.31,4.87-6.22,10-9.48,14.89-1.09,1.65-.83,2.94,1,3.94A26.25,26.25,0,0,1,101,227c6.41,3.81,13.3,6.58,20.16,9.37,14.08,5.72,28.53,10.31,43.59,12.66,12.34,1.92,24.69,2.48,37-.66a10.25,10.25,0,0,0,1.3-.5C202.09,246.94,200.86,247.56,199.79,247.28Z"/><path class="cls-5" d="M11.75,154.08c-.14-.65-.06-1.5-.44-1.9-2.54-2.68-1.36-5.1.31-7.62Q18.75,133.82,25.78,123c5.61-8.65,11-17.44,16.76-26,5.36-8,10-16.53,15.75-24.25A9.41,9.41,0,0,0,60.23,69,117.32,117.32,0,0,0,33,78.49c-5.17,5.91-9.3,12.56-13.39,19.24-3.49,5.71-7.55,11-11,16.78-2,3.45-4,7-6.33,10.25-1,1.4-1,3-1,4.67C1.8,134.63,3.82,139.34,6,144A59.14,59.14,0,0,0,11.75,154.08Z"/><path class="cls-9" d="M125.73,216.08c2.68,3.2,6.49,4.74,9.91,6.81a232.45,232.45,0,0,0,35.19,17.75c1.48.58,3,1,4.55,1.47.67.68,1.62.56,2.44.83,2.22-.64,1.62-2.24,1.17-3.68-1.6-5.09-3.41-10.1-5.22-15.11-5.33-14.77-10.53-29.59-15.8-44.39-4.18-11.73-8.33-23.48-12.56-35.2-1.76-4.89-4.14-9.61-4.79-14.9-.13-1-.41-2.16-1.92-1.84-.09,11.59,1.59,23,3.64,34.31,2.71,15,7,29.61,10.13,44.53.9,4.37,1.81,8.79.87,13.31-.79,3.84-2.48,5.15-6.38,4.91-4.93-.3-9.19-2.63-13.5-4.71C130.84,218.9,128.3,217.45,125.73,216.08Z"/><path class="cls-10" d="M81.22,135.53l-.09-4.1c-2.19,3.12-4.12,5.64-5.8,8.32-8.19,13.11-16.65,26-25.2,38.9-1.48,2.22-2.73,4.61-4.26,6.79-1.29,1.85-1.68,3.58-.3,5.48A110.08,110.08,0,0,0,58.78,201.3c.26-.14.58-.43.48-.63-1.51-3.14,1-5.11,2.15-7.45,3.06-6,7.16-11.35,10.92-16.92A71.57,71.57,0,0,0,77.22,168a14.29,14.29,0,0,1,3.89-4.74Q80.5,156,79.89,148.8a52.41,52.41,0,0,1,.34-6.14l.22-1.42c-.23-1.26.66-2.4.41-3.67Z"/><path class="cls-11" d="M196.9,126.05c3,12.34,8.1,23.93,12.24,35.87,6.47,18.67,13.19,37.26,19.81,55.88.24.66.16,1.76,1.16,1.67s.85-1.15,1-1.85c.47-1.75.87-3.52,1.31-5.29a49.79,49.79,0,0,0,.57-14.72c-.68,0-1-.51-1.12-1.09C228.14,182.7,222.74,169.47,218,156c-1.17-3.3-2.09-6.71-3.86-9.76-.51-.88-.28-1.86-.42-2.79a12.7,12.7,0,0,0-3.76-4.47c-3.27-4.1-7.14-7.67-10.26-11.91C199,126.15,198.25,125.25,196.9,126.05Z"/><path class="cls-12" d="M138.7,127.82c2.29,11.14,7.21,21.35,10.74,32.06,3.13,9.47,6.61,18.81,9.95,28.21q9.11,25.66,18.24,51.32a5.64,5.64,0,0,1,.54,3.33c.66.88,2,.33,2.62,1.23h0l2.78.63c1.81-.45,2.2-1.57,1.58-3.25-2.73-7.29-5.19-14.67-7.77-22-3.3-9.39-6.81-18.71-10.17-28.08-3-8.4-5.78-16.87-8.93-25.22-1.6-4.24-3-8.57-4.45-12.88-1.82-5.5-4.18-10.77-6-16.28-1.88-5.78-4.06-11.45-6-17.19-.47-1.39-.71-3.18-2.95-2.43A61.3,61.3,0,0,0,138.7,127.82Z"/><path class="cls-13" d="M152.41,70.09c-.12.6-.24,1.2-.35,1.8-.2,2.86.9,5.44,1.86,8,5.12,13.61,9.74,27.41,14.66,41.09q5.74,16,11.47,31.94c3.78,10.56,7.5,21.15,11.24,31.72,3.56,10,7.23,20,10.74,30.09,2.92,8.36,6.14,16.6,8.86,25,.64,2,1.59,3.52,4.06,2.84a7.35,7.35,0,0,0,2.92-2.23c-1.28,0-1.74-.81-2.11-1.9-3.34-9.7-6.61-19.41-10.24-29-2.66-7-4.67-14.31-7.46-21.27-3.52-8.82-6.16-17.95-9.64-26.78-2.7-6.88-4.83-14-7.29-21-1.71-4.83-3.69-9.57-5.29-14.44-1-3-2.12-5.85-3-8.85-1.43-4.71-3.35-9.27-5-13.93-2.43-7-5-13.93-7.34-20.94-1.62-4.87-4.05-9.44-5.07-14.52a17.08,17.08,0,0,1-.16-2.27A16,16,0,0,0,152.41,70.09Z"/><path class="cls-14" d="M81.11,163.25c-.39-.48-.7-1.36-1.48-.57a21.53,21.53,0,0,0-3.15,3.62q-3.37,5.63-6.9,11.14c-3,4.78-6.74,9.17-9.06,14.42a8.23,8.23,0,0,1-1.59,2.69c-2.39,2.28-2.46,4.46-.15,6.75a71.22,71.22,0,0,0,10,7c2.32-3.09,3.91-6.62,6-9.85,3.2-4.95,6.51-9.82,9.67-14.79,1-1.54,2.65-1.26,3.75-2.25A109.74,109.74,0,0,1,81.11,163.25Z"/><path class="cls-15" d="M88.22,181.37c-1.72-2.36-2.94-1.57-4.27.53-4.78,7.54-9.66,15-14.49,22.5a5.46,5.46,0,0,0-.65,3.86,115.68,115.68,0,0,0,16.75,10.39c2.58-7.46,7.38-13.62,11.55-20.14.59-.92,1.76-1.11,2.35-2C95.6,191.54,91.43,186.82,88.22,181.37Z"/><path class="cls-13" d="M215,242.58c-1.78-.68-2.44-2.23-3-3.89q-6.26-17.91-12.56-35.8c-4.27-12-8.63-24-13-36-4.22-11.71-8.58-23.37-12.61-35.15q-8-23.34-16.5-46.47c-1.34-3.66-2.59-7.34-3.87-11-.31-.89-.44-1.88-1.38-2.39a4.9,4.9,0,0,0-.69,5.11q5.1,14.23,10.12,28.49c2.41,6.81,4.77,13.63,7.2,20.43,2.55,7.16,5.17,14.3,7.73,21.47,4.08,11.47,8.1,23,12.19,34.42q6.84,19.22,13.73,38.41c2.52,7.07,5.09,14.12,7.52,21.22.54,1.59,1.32,2.45,3,2.39A3.93,3.93,0,0,0,215,242.58Z"/><path class="cls-16" d="M1.26,129.43C4,125,6.53,120.4,9.37,116c7.38-11.41,14.87-22.74,22.34-34.09A8.66,8.66,0,0,0,33,78.49c-12.73,5.83-23.82,13.6-29.78,27A34.94,34.94,0,0,0,1.26,129.43Z"/><path class="cls-1" d="M212.44,143.94c2.91,8.34,5.8,16.7,8.74,25,3.07,8.68,6.19,17.34,9.3,26a16.18,16.18,0,0,0,1.27,2.85c.43.74.92.32,1.28-.22.26-6.12.51-12.23.8-18.35.15-3.2.37-6.41.56-9.62-1.5-.18-1.9-1.37-2.16-2.58-.5-2.34-1.85-4.3-2.6-6.52a3.89,3.89,0,0,0-2-2.2c-1.72-3.24-4.38-5.65-7-8.1a60.26,60.26,0,0,0-5-5.56C214.71,143.77,213.76,143,212.44,143.94Z"/><path class="cls-17" d="M99.46,196.5c-1.65-1.1-2.63-.47-3.62,1.13-3.62,5.86-7.26,11.72-11.13,17.4-1.32,1.93.36,2.48.85,3.62A97.91,97.91,0,0,0,101,227a6.48,6.48,0,0,0-1.49-1.26c-3.77-1.58-3.91-2.33-1.32-6.11s5.2-8,7.63-12c1.27-2.13,2.47-3.12,4.5-1a4.58,4.58,0,0,0,2.5,1.22Z"/><path class="cls-3" d="M168.93,49.07q7.19,20.35,14.4,40.7c.51,1.41,1.28,2.73,1.93,4.09,1.66-.61,1.37-2.06,1.37-3.35,0-4.16-.24-8.32.74-12.42a6.43,6.43,0,0,0,.06-2.76c-1.22-10.1-5.93-19.07-8.92-28.6-.52-1.68.13-3.69-1.39-5A42.58,42.58,0,0,0,168.93,49.07Z"/><path class="cls-18" d="M177.12,41.68a5.32,5.32,0,0,0-.15,4.67c2.92,8,5.73,16.09,8.77,24.07.63,1.65-.17,3.22.38,4.76a3.54,3.54,0,0,0,1.86-2.7c.92-3.77,2.45-7.35,3.4-11.1a24.83,24.83,0,0,0-2.33-11.9c-1.3-2.85-2-6-3.21-8.84-.79-1.84.95-3.58-.27-5.22A64.32,64.32,0,0,0,177.12,41.68Z"/><path class="cls-19" d="M138.86,117.24c3,2.12,3.13,5.75,4.23,8.77,2.78,7.67,5.41,15.39,8.34,23,2.55,6.64,4.74,13.43,7.1,20.14q4.72,13.46,9.48,26.89,7.89,22.15,15.84,44.27c.54,1.5,1,2.92-.3,4.27l2.75.65c1.51-.81,1.37-2.08,1-3.48a96.38,96.38,0,0,0-3.54-10.22c-3.05-8.39-5.94-16.85-9-25.26q-5.22-14.49-10.47-29c-3.19-8.85-6.1-17.81-9.4-26.62-4.2-11.21-7.63-22.72-12.19-33.79a13.61,13.61,0,0,1-1.31-7.23c.2-1.39-.56-2.58-.86-3.87,1.06-6.73,3.17-13.22,4.61-19.86-1.68,2.92-2.34,6.22-3.16,9.4A100.53,100.53,0,0,0,138.86,117.24Z"/><path class="cls-10" d="M226.89,159.14c2,2.18,2.82,5,3.85,7.71.37,1,.57,2,1,2.92.34.74.38,2,1.28,2,1.23,0,.94-1.4,1.38-2.15,1.45-9.87,2.54-19.81,5-29.52,1.25-5,2.41-10,3.62-15a.8.8,0,0,0-.84-.19c-1.32.61-1.43,1.95-1.74,3.12-.94,3.6-1.71,7.25-2.61,10.87-.24,1-.24,2.1-1.16,3-1.07-.78-1.1-2.12-1.67-3.13a2.45,2.45,0,0,0-2.53-1.43c-1.15.12-1.52,1-1.74,2a33.25,33.25,0,0,1-2.8,8.35C227.46,151.52,226.53,155.28,226.89,159.14Z"/><path class="cls-20" d="M185.57,35.42c-1.87,1.81-1.7,3.66-.9,6.1,1.68,5.16,4.15,10,5.42,15.35a6.7,6.7,0,0,1,.18,3.38.73.73,0,0,0,.84.14,50,50,0,0,0,6.08-10.14c.07-.58.27-1.13.35-1.71a31.47,31.47,0,0,0-2.91-10c-1-2.21-2-4.53-.5-7a1.06,1.06,0,0,0-.38-1.27A52.3,52.3,0,0,0,185.57,35.42Z"/><path class="cls-15" d="M212.09,31.69c.4-2.17-.48-4.09-1.2-6-.52-1.37-.91-2.69,0-4A49.69,49.69,0,0,0,201.74,26a13.28,13.28,0,0,1-2.33,1.51c-.72.53-1.41,1.2-1.22,2.07.78,3.57,1.41,7.22,3.75,10.19a2.22,2.22,0,0,0,1,.54c1.38.36,2.32-.35,3.23-1.27a45.69,45.69,0,0,1,5.08-4.56C211.61,33.59,212.44,32.82,212.09,31.69Z"/><path class="cls-21" d="M242.47,125l.5.1q3.18-9.53,6.37-19a2.8,2.8,0,0,0-1.06,1.6c-.29.85-.36,2.08-1.62,1.92-1.1-.14-1.22-1.28-1.46-2.17a14,14,0,0,0-1.42-3.94c-.68-1.1-1.44-1.37-2.5-.59a2.07,2.07,0,0,0-1.26.66c-1,1.1-1.28,2.55-1.82,3.87-.46,2.78-2.4,5-2.92,7.76-.51,2.42-1.47,4.76-1.28,7.29.78,1.59,1.69,1.19,2.55.1.59-.75.55-1.82,1.27-2.8a13.64,13.64,0,0,1,2.11,3.61C240.42,124.49,241,125.42,242.47,125Z"/><path class="cls-14" d="M203.27,39.65c-2.25-3-2.81-6.68-3.86-10.16-.61-2,1.81-2.14,2.33-3.48a46.07,46.07,0,0,0-8,4.26c-3,2.32-2,5.07-.81,7.79a82,82,0,0,1,3.66,10.08c.16.11.33.27.49.24C199.63,48,203.63,42.32,203.27,39.65Z"/><path class="cls-1" d="M80.23,142.66a11.26,11.26,0,0,0-.34,6.14A17.87,17.87,0,0,0,80.23,142.66Z"/><path class="cls-1" d="M80.86,137.57c-.3,1.21-.81,2.39-.41,3.67A5.72,5.72,0,0,0,80.86,137.57Z"/><path class="cls-22" d="M236.6,115.38c1.74-2.23,1.3-5.31,2.94-7.58,1-1.06.45-2.73,1.47-3.79l.27-1.11c1.43-5.29,4.1-10.08,6-15.16.34-.89.7-1.78,1.05-2.66a9.62,9.62,0,0,0,0-7.19c-3-8.22-5.09-16.73-7.95-25C237.94,45.64,236,38.19,233.28,31c-.56-1.52-.75-3.15-1.3-4.67-.65-1.83-1.42-3.64-3.91-3.27-5.89,1.8-11,5.11-16,8.65l-1.65,2c2,1.8,2.49,4.33,3.29,6.73,3,8.84,5.8,17.71,8.48,26.63,1.61,5.36,3.19,10.75,4.94,16,2,6,3.68,12.19,6,18.13a35.55,35.55,0,0,1,2.65,11.94C235.81,114,235.69,114.86,236.6,115.38Z"/><path class="cls-23" d="M228.07,23a8,8,0,0,1,2.79,4.15c3.49,11.13,7,22.23,10.56,33.36,2.27,7.23,4.5,14.47,6.75,21.71a5.63,5.63,0,0,1,.2,2.82l8.74-17.43a8.21,8.21,0,0,0,.69-6.57c-1.3-4.37-3-8.61-4.21-13-1.29-4.65-2.92-9.2-4.47-13.76s-2.54-9.33-4.55-13.74c-.55-1.22-1.14-2.2-2.68-2C237.2,19.81,232.37,20.57,228.07,23Z"/><path class="cls-24" d="M241.89,18.61a20.27,20.27,0,0,1,2.83,6.13c1.48,5.09,3.1,10.14,4.72,15.19,2.54,7.92,5.14,15.83,7.67,23.76a7.11,7.11,0,0,1,0,4q4.74-7.74,9.46-15.49c.88-2.21.32-4.36-.37-6.43-2.55-7.62-4.3-15.53-7.53-22.92a14.4,14.4,0,0,1-.67-3.06c-.54-2.76-1.81-4-4.32-4.27C249.71,16.35,245.58,16.6,241.89,18.61Z"/><path class="cls-25" d="M253.68,15.48a5.93,5.93,0,0,1,2.79,3.77c3.41,11,6.74,21.94,10.1,32.91,2.85-3.93,5.79-7.79,8.5-11.81,1.57-2.32,1.07-5,.31-7.47-1.76-5.72-3.69-11.38-5.42-17.1-.67-2.21-1.9-3.08-4.15-2.85A60.46,60.46,0,0,0,253.68,15.48Z"/><path class="cls-26" d="M186.16,77.59c-1.61,5.36-.72,10.84-.9,16.27a77.9,77.9,0,0,0,11.64,32.19c3.26,3.72,6.5,7.46,9.78,11.16.8.91,1.74,1.69,2.62,2.52,2.74-.07,2.29-2,1.89-3.61-1-4.07-2.72-7.92-3.81-12-2.33-8.64-5.41-17-8.06-25.56s-5.25-17.07-8.27-25.48A5.86,5.86,0,0,0,190,70.8c-1.1-1.13-2.27-.9-2.63.66C186.9,73.49,186.08,75.46,186.16,77.59Z"/><path class="cls-27" d="M140.61,105.8c-1.84,6.21,1,11.51,3,17,4.84,13.32,9.56,26.68,14.3,40Q168.6,193,179.23,223.11q3.38,9.52,6.79,19a5.56,5.56,0,0,1,.28,3.1c1.26.11,2.64,1.23,3.73,0s.12-2.73-.34-4c-6.78-19.27-13.48-38.57-20.41-57.77-5.6-15.54-11-31.17-16.73-46.64-3.21-8.62-6.27-17.32-9.3-26A12.72,12.72,0,0,0,140.61,105.8Z"/><path class="cls-19" d="M180.79,244a4.34,4.34,0,0,0-2.62-1.23l-2.79-.63C176.94,243.44,179,243.42,180.79,244Z"/><path class="cls-28" d="M186.16,77.59c.38-1.58.72-3.16,1.15-4.73.18-.68.08-1.74,1.1-1.73.75,0,.87.89,1.07,1.51,2.26,7.15,4.48,14.31,6.78,21.44,1.92,6,4,11.86,5.88,17.81,2.62,8.13,5.18,16.27,7.74,24.43.37,1.18.62,2.44-.58,3.41l3.14,4.21c3.09,1.76,4.65,5.2,7.57,7.13,2.37-.08,3-.93,2.41-3.39-.88-3.51-2.12-6.9-3.28-10.32-2.53-7.45-4.82-15-7.19-22.5-2.07-6.6-4.09-13.23-6.55-19.69a16.88,16.88,0,0,1-.67-1.88c-2-8.32-5.07-16.3-7.67-24.43-.86-2.69-1.32-5.53-2.52-8.11-1-2.11-2.06-2.18-3.75-.42l-.52-.08a150.69,150.69,0,0,0-4.15,14.93A4.48,4.48,0,0,0,186.16,77.59Z"/><path class="cls-29" d="M190.79,60.33c1.55-1,2.07-.06,2.68,1.23,1.56,3.29,1.9,6.93,3.08,10.34,2.52,7.26,4.62,14.67,7,21.95,3.27,9.91,6.59,19.82,9.69,29.78,2.52,8.07,5.45,16,7.79,24.12.4,1.37.69,2.65-1,3.32l6.87,8.07c1.41-1.51,1.44-3.46,1.56-5.32a37.17,37.17,0,0,1,1.06-5.85c-.38-.85.3-1.62.17-2.44-1.06-7.91-4.14-15.26-6.6-22.71-4.68-14.17-8.92-28.49-13.6-42.66-2.81-8.49-5.82-16.91-8-25.61a19.18,19.18,0,0,0-1.91-4.14c-.77-1.47-2-2.07-3.4-.62C194.2,53.2,191.73,56.37,190.79,60.33Z"/><path class="cls-30" d="M229.48,145.58a3.9,3.9,0,0,0,0,2.39c.64-2.7,1.27-5.39,1.93-8.08.16-.65.34-1.41,1.15-1.45s1.09.66,1.29,1.3c.49,1.54.89,3.11,1.42,4.63.27.76.53,1.84,1.57,1.74s.88-1.14,1-1.85q2.29-9.62,4.55-19.24a24,24,0,0,1-3.45-7.33c-.15-.66-.31-1.37-1.13-1.39s-1,.72-1.21,1.34c-.68,1.85-.5,4-1.92,5.57a2.14,2.14,0,0,0-1.65,1.43A45.45,45.45,0,0,0,229.48,145.58Z"/><path class="cls-31" d="M229.48,145.58c2-7.4,2.22-15.22,5.28-22.37q.92-3.92,1.84-7.83c1.67-5-.44-9.69-2-14.13s-2.69-8.71-4.19-13c-2.83-8.13-5.38-16.37-8-24.6Q218.12,49.78,214,35.86c-.59-2-1.67-2.61-3.54-2.21-3,1.29-4.47,4.38-7.17,6-2.28,2.79-4.05,6-6.67,8.49-.14.55-.27,1.1-.41,1.65,3.37.05,3.37,3.26,3.88,5.12,4.16,15.46,10,30.36,14.38,45.72,1.72,6,3.85,11.92,5.66,17.92,2.65,8.81,5.68,17.5,8.58,26.24C228.8,145.11,229.21,145.32,229.48,145.58Z"/><path class="cls-2" d="M241,104c-1.08,1-1.09,2.48-1.47,3.79C240.63,106.77,240.62,105.31,241,104Z"/><text class="cls-32" transform="translate(253.68 236.93)">oltora</text><text class="cls-33" transform="translate(253.68 236.93)">oltora</text></g></g></svg>